<?xml version="1.0" encoding="UTF-8" standalone="no"?>
<!DOCTYPE svg PUBLIC "-//W3C//DTD SVG 1.1//EN" "http://www.w3.org/Graphics/SVG/1.1/DTD/svg11.dtd">
<svg width="100%" height="100%" viewBox="0 0 357 75" version="1.1" xmlns="http://www.w3.org/2000/svg" xmlns:xlink="http://www.w3.org/1999/xlink" xml:space="preserve" style="fill-rule:evenodd;clip-rule:evenodd;stroke-linejoin:round;stroke-miterlimit:1.41421;">
    <g transform="matrix(1,0,0,1,-501,-341)">
        <g transform="matrix(5.53134,0,-1.03845,5.53134,-263.164,-1428.25)">
            <path d="M224.091,319.859L219.039,328.427L221.019,328.427L222.099,326.519L225.303,326.519L225.579,328.427L227.451,328.427L226.023,319.859L224.091,319.859ZM222.843,325.115L224.691,321.707L224.715,321.707L225.135,325.115L222.843,325.115Z" style="fill:rgb(164,164,109);fill-rule:nonzero;"/>
            <path d="M234.015,328.103L235.251,322.223L233.619,322.223L233.427,323.171L233.403,323.171C233.227,322.763 232.975,322.475 232.647,322.307C232.319,322.139 231.939,322.055 231.507,322.055C231.011,322.055 230.569,322.165 230.181,322.385C229.793,322.605 229.465,322.893 229.197,323.249C228.929,323.605 228.725,324.005 228.585,324.449C228.445,324.893 228.375,325.343 228.375,325.799C228.375,326.183 228.431,326.529 228.543,326.837C228.655,327.145 228.813,327.411 229.017,327.635C229.221,327.859 229.471,328.031 229.767,328.151C230.063,328.271 230.395,328.331 230.763,328.331C231.459,328.331 232.027,328.039 232.467,327.455L232.491,327.479C232.403,327.775 232.315,328.055 232.227,328.319C232.139,328.583 232.031,328.811 231.903,329.003C231.775,329.195 231.621,329.347 231.441,329.459C231.261,329.571 231.035,329.627 230.763,329.627C230.627,329.627 230.491,329.611 230.355,329.579C230.219,329.547 230.097,329.495 229.989,329.423C229.881,329.351 229.795,329.259 229.731,329.147C229.667,329.035 229.639,328.899 229.647,328.739L227.955,328.739C227.955,329.115 228.033,329.431 228.189,329.687C228.345,329.943 228.549,330.151 228.801,330.311C229.053,330.471 229.337,330.587 229.653,330.659C229.969,330.731 230.283,330.767 230.595,330.767C231.107,330.767 231.553,330.715 231.933,330.611C232.313,330.507 232.641,330.347 232.917,330.131C233.193,329.915 233.419,329.639 233.595,329.303C233.771,328.967 233.911,328.567 234.015,328.103ZM231.819,323.339C232.235,323.339 232.543,323.465 232.743,323.717C232.943,323.969 233.043,324.291 233.043,324.683C233.043,324.947 233.005,325.219 232.929,325.499C232.853,325.779 232.741,326.033 232.593,326.261C232.445,326.489 232.257,326.677 232.029,326.825C231.801,326.973 231.535,327.047 231.231,327.047C231.031,327.047 230.859,327.011 230.715,326.939C230.571,326.867 230.451,326.767 230.355,326.639C230.259,326.511 230.189,326.365 230.145,326.201C230.101,326.037 230.079,325.863 230.079,325.679C230.079,325.431 230.117,325.169 230.193,324.893C230.269,324.617 230.379,324.365 230.523,324.137C230.667,323.909 230.847,323.719 231.063,323.567C231.279,323.415 231.531,323.339 231.819,323.339Z" style="fill:rgb(164,164,109);fill-rule:nonzero;"/>
            <path d="M240.291,324.659L237.447,324.659C237.511,324.483 237.589,324.315 237.681,324.155C237.773,323.995 237.887,323.855 238.023,323.735C238.159,323.615 238.319,323.519 238.503,323.447C238.687,323.375 238.899,323.339 239.139,323.339C239.387,323.339 239.587,323.377 239.739,323.453C239.891,323.529 240.007,323.631 240.087,323.759C240.167,323.887 240.221,324.029 240.249,324.185C240.277,324.341 240.291,324.499 240.291,324.659ZM237.267,325.739L241.839,325.739C241.903,325.395 241.935,325.071 241.935,324.767C241.935,324.319 241.865,323.925 241.725,323.585C241.585,323.245 241.389,322.961 241.137,322.733C240.885,322.505 240.581,322.335 240.225,322.223C239.869,322.111 239.475,322.055 239.043,322.055C238.515,322.055 238.039,322.161 237.615,322.373C237.191,322.585 236.833,322.869 236.541,323.225C236.249,323.581 236.023,323.989 235.863,324.449C235.703,324.909 235.623,325.387 235.623,325.883C235.623,326.331 235.689,326.723 235.821,327.059C235.953,327.395 236.139,327.677 236.379,327.905C236.619,328.133 236.909,328.303 237.249,328.415C237.589,328.527 237.967,328.583 238.383,328.583C238.831,328.583 239.225,328.539 239.565,328.451C239.905,328.363 240.203,328.229 240.459,328.049C240.715,327.869 240.935,327.647 241.119,327.383C241.303,327.119 241.463,326.811 241.599,326.459L239.895,326.459C239.831,326.555 239.761,326.655 239.685,326.759C239.609,326.863 239.521,326.955 239.421,327.035C239.321,327.115 239.205,327.181 239.073,327.233C238.941,327.285 238.791,327.311 238.623,327.311C238.159,327.311 237.815,327.199 237.591,326.975C237.367,326.751 237.255,326.459 237.255,326.099L237.255,325.943C237.255,325.911 237.255,325.879 237.255,325.847C237.255,325.815 237.259,325.779 237.267,325.739Z" style="fill:rgb(164,164,109);fill-rule:nonzero;"/>
            <path d="M243.543,322.223L242.259,328.427L243.951,328.427L244.647,325.127C244.695,324.911 244.765,324.699 244.857,324.491C244.949,324.283 245.065,324.099 245.205,323.939C245.345,323.779 245.513,323.649 245.709,323.549C245.905,323.449 246.131,323.399 246.387,323.399C246.587,323.399 246.773,323.459 246.945,323.579C247.117,323.699 247.203,323.851 247.203,324.035C247.203,324.123 247.189,324.247 247.161,324.407C247.133,324.567 247.111,324.695 247.095,324.791L246.339,328.427L248.043,328.427L248.811,324.791C248.819,324.735 248.833,324.661 248.853,324.569C248.873,324.477 248.893,324.379 248.913,324.275C248.933,324.171 248.951,324.069 248.967,323.969C248.983,323.869 248.991,323.787 248.991,323.723C248.991,322.611 248.387,322.055 247.179,322.055C246.283,322.055 245.559,322.399 245.007,323.087L244.983,323.087L245.175,322.223L243.543,322.223Z" style="fill:rgb(164,164,109);fill-rule:nonzero;"/>
            <path d="M253.407,323.339C253.823,323.339 254.131,323.461 254.331,323.705C254.531,323.949 254.631,324.275 254.631,324.683C254.631,324.947 254.593,325.233 254.517,325.541C254.441,325.849 254.325,326.135 254.169,326.399C254.013,326.663 253.819,326.881 253.587,327.053C253.355,327.225 253.079,327.311 252.759,327.311C252.559,327.311 252.383,327.273 252.231,327.197C252.079,327.121 251.953,327.021 251.853,326.897C251.753,326.773 251.677,326.627 251.625,326.459C251.573,326.291 251.547,326.115 251.547,325.931C251.547,325.659 251.583,325.371 251.655,325.067C251.727,324.763 251.839,324.483 251.991,324.227C252.143,323.971 252.337,323.759 252.573,323.591C252.809,323.423 253.087,323.339 253.407,323.339ZM254.091,327.659L253.923,328.427L255.567,328.427L257.379,319.859L255.675,319.859L254.991,323.051L254.967,323.051C254.831,322.707 254.597,322.455 254.265,322.295C253.933,322.135 253.587,322.055 253.227,322.055C252.651,322.055 252.151,322.173 251.727,322.409C251.303,322.645 250.951,322.955 250.671,323.339C250.391,323.723 250.183,324.159 250.047,324.647C249.911,325.135 249.843,325.635 249.843,326.147C249.843,326.899 250.049,327.493 250.461,327.929C250.873,328.365 251.455,328.583 252.207,328.583C252.591,328.583 252.949,328.509 253.281,328.361C253.613,328.213 253.875,327.971 254.067,327.635L254.091,327.659Z" style="fill:rgb(164,164,109);fill-rule:nonzero;"/>
            <path d="M257.775,324.107L259.371,324.107C259.427,323.795 259.575,323.565 259.815,323.417C260.055,323.269 260.327,323.195 260.631,323.195C260.743,323.195 260.861,323.205 260.985,323.225C261.109,323.245 261.225,323.283 261.333,323.339C261.441,323.395 261.531,323.471 261.603,323.567C261.675,323.663 261.711,323.791 261.711,323.951C261.711,324.151 261.663,324.301 261.567,324.401C261.471,324.501 261.325,324.577 261.129,324.629C260.933,324.681 260.687,324.719 260.391,324.743C260.095,324.767 259.747,324.803 259.347,324.851C258.595,324.939 258.013,325.163 257.601,325.523C257.189,325.883 256.983,326.363 256.983,326.963C256.983,327.179 257.023,327.385 257.103,327.581C257.183,327.777 257.307,327.949 257.475,328.097C257.643,328.245 257.853,328.363 258.105,328.451C258.357,328.539 258.651,328.583 258.987,328.583C259.347,328.583 259.695,328.521 260.031,328.397C260.367,328.273 260.651,328.079 260.883,327.815L260.883,328.427L262.587,328.427C262.547,328.291 262.527,328.171 262.527,328.067C262.527,327.947 262.533,327.805 262.545,327.641C262.557,327.477 262.579,327.339 262.611,327.227L263.163,324.731C263.251,324.331 263.295,323.983 263.295,323.687C263.303,323.335 263.225,323.053 263.061,322.841C262.897,322.629 262.687,322.465 262.431,322.349C262.175,322.233 261.895,322.155 261.591,322.115C261.287,322.075 260.995,322.055 260.715,322.055C260.363,322.055 260.023,322.089 259.695,322.157C259.367,322.225 259.071,322.339 258.807,322.499C258.543,322.659 258.319,322.869 258.135,323.129C257.951,323.389 257.831,323.715 257.775,324.107ZM261.375,325.451L261.207,326.051C261.159,326.219 261.099,326.387 261.027,326.555C260.955,326.723 260.857,326.873 260.733,327.005C260.609,327.137 260.457,327.245 260.277,327.329C260.097,327.413 259.875,327.455 259.611,327.455C259.363,327.455 259.145,327.397 258.957,327.281C258.769,327.165 258.675,326.991 258.675,326.759C258.675,326.567 258.711,326.409 258.783,326.285C258.855,326.161 258.949,326.063 259.065,325.991C259.181,325.919 259.315,325.865 259.467,325.829C259.619,325.793 259.775,325.767 259.935,325.751C260.183,325.735 260.431,325.713 260.679,325.685C260.927,325.657 261.159,325.579 261.375,325.451Z" style="fill:rgb(164,164,109);fill-rule:nonzero;"/>
        </g>
        <g transform="matrix(5.53134,0,0,5.53134,-715.426,-1408.39)">
            <path d="M221.715,319.859L219.915,328.427L221.787,328.427L222.543,324.887L226.203,324.887L226.515,323.423L222.843,323.423L223.263,321.443L227.463,321.443L227.811,319.859L221.715,319.859Z" style="fill:rgb(164,164,109);fill-rule:nonzero;"/>
            <path d="M228.747,319.859L226.935,328.427L228.627,328.427L230.451,319.859L228.747,319.859Z" style="fill:rgb(164,164,109);fill-rule:nonzero;"/>
            <path d="M234.963,324.659L232.119,324.659C232.183,324.483 232.261,324.315 232.353,324.155C232.445,323.995 232.559,323.855 232.695,323.735C232.831,323.615 232.991,323.519 233.175,323.447C233.359,323.375 233.571,323.339 233.811,323.339C234.059,323.339 234.259,323.377 234.411,323.453C234.563,323.529 234.679,323.631 234.759,323.759C234.839,323.887 234.893,324.029 234.921,324.185C234.949,324.341 234.963,324.499 234.963,324.659ZM231.939,325.739L236.511,325.739C236.575,325.395 236.607,325.071 236.607,324.767C236.607,324.319 236.537,323.925 236.397,323.585C236.257,323.245 236.061,322.961 235.809,322.733C235.557,322.505 235.253,322.335 234.897,322.223C234.541,322.111 234.147,322.055 233.715,322.055C233.187,322.055 232.711,322.161 232.287,322.373C231.863,322.585 231.505,322.869 231.213,323.225C230.921,323.581 230.695,323.989 230.535,324.449C230.375,324.909 230.295,325.387 230.295,325.883C230.295,326.331 230.361,326.723 230.493,327.059C230.625,327.395 230.811,327.677 231.051,327.905C231.291,328.133 231.581,328.303 231.921,328.415C232.261,328.527 232.639,328.583 233.055,328.583C233.503,328.583 233.897,328.539 234.237,328.451C234.577,328.363 234.875,328.229 235.131,328.049C235.387,327.869 235.607,327.647 235.791,327.383C235.975,327.119 236.135,326.811 236.271,326.459L234.567,326.459C234.503,326.555 234.433,326.655 234.357,326.759C234.281,326.863 234.193,326.955 234.093,327.035C233.993,327.115 233.877,327.181 233.745,327.233C233.613,327.285 233.463,327.311 233.295,327.311C232.831,327.311 232.487,327.199 232.263,326.975C232.039,326.751 231.927,326.459 231.927,326.099L231.927,325.943C231.927,325.911 231.927,325.879 231.927,325.847C231.927,325.815 231.931,325.779 231.939,325.739Z" style="fill:rgb(164,164,109);fill-rule:nonzero;"/>
            <path d="M240.855,325.199L243.435,322.223L241.527,322.223L240.123,324.011L239.439,322.223L237.615,322.223L239.019,325.103L236.151,328.427L238.071,328.427L239.727,326.387L240.627,328.427L242.427,328.427L240.855,325.199Z" style="fill:rgb(164,164,109);fill-rule:nonzero;"/>
        </g>
        <g transform="matrix(4.08124e-17,-0.666517,4.86459,2.9787e-16,-2210.57,1026.57)">
            <path d="M927.888,581L916.056,581.666L916.559,627.715L927.888,628.393L927.888,581Z" style="fill:rgb(164,164,109);"/>
        </g>
    </g>
</svg>
